<?xml version="1.0" standalone="no"?>
<!DOCTYPE svg PUBLIC "-//W3C//DTD SVG 20010904//EN"
 "http://www.w3.org/TR/2001/REC-SVG-20010904/DTD/svg10.dtd">
<svg version="1.0" xmlns="http://www.w3.org/2000/svg"
 width="1256.000000pt" height="1280.000000pt" viewBox="0 0 1256.000000 1280.000000"
 preserveAspectRatio="xMidYMid meet">
<metadata>
Created by potrace 1.15, written by Peter Selinger 2001-2017
</metadata>
<g transform="translate(0.000000,1280.000000) scale(0.100000,-0.100000)"
fill="#8bc34a" stroke="none">
<path d="M7606 12659 c-166 -190 -235 -309 -257 -441 -20 -118 11 -250 84
-366 l33 -53 55 42 c215 170 300 353 260 560 -14 70 -89 321 -99 330 -4 4 -38
-29 -76 -72z"/>
<path d="M4601 12663 c-41 -174 -53 -392 -26 -492 34 -128 134 -257 255 -328
88 -51 87 -51 111 3 62 145 80 325 44 434 -29 90 -96 180 -218 292 -171 158
-153 147 -166 91z"/>
<path d="M5670 12451 c-208 -75 -303 -125 -389 -205 -107 -100 -157 -213 -168
-375 l-6 -94 59 8 c89 11 220 52 298 93 151 79 226 195 290 450 38 151 40 162
29 161 -5 0 -55 -17 -113 -38z"/>
<path d="M6590 12431 c0 -76 21 -242 40 -318 60 -234 210 -381 447 -438 51
-13 51 -12 58 12 12 51 6 258 -10 317 -48 179 -144 270 -442 420 l-93 46 0
-39z"/>
<path d="M8033 12025 c-107 -23 -190 -70 -274 -154 -89 -89 -140 -168 -118
-182 8 -5 59 -24 114 -41 90 -29 112 -32 225 -33 200 0 272 36 484 245 l130
127 -70 12 c-236 42 -383 49 -491 26z"/>
<path d="M3913 11963 c-57 -2 -103 -6 -103 -10 0 -10 91 -133 161 -217 151
-182 294 -256 491 -256 81 0 218 21 237 36 6 5 -46 110 -83 169 -80 125 -194
218 -310 254 -67 21 -225 30 -393 24z"/>
<path d="M9590 11730 c-115 -134 -192 -254 -221 -342 -43 -136 -25 -282 54
-423 19 -33 40 -61 48 -63 18 -3 141 104 197 171 97 117 141 255 122 381 -11
75 -99 376 -109 375 -3 0 -44 -44 -91 -99z"/>
<path d="M5916 11698 c-224 -263 -281 -423 -221 -628 15 -54 59 -146 84 -180
l19 -24 41 28 c80 56 196 188 237 271 39 78 39 80 39 194 0 110 -2 124 -49
279 -27 89 -52 162 -56 162 -4 0 -46 -46 -94 -102z"/>
<path d="M7213 11552 c-105 -219 -134 -340 -114 -468 15 -99 77 -217 158 -300
l65 -67 24 29 c54 65 126 194 149 267 40 126 31 247 -28 362 -26 52 -177 294
-187 300 -4 2 -34 -53 -67 -123z"/>
<path d="M3792 11591 c-292 -198 -392 -338 -392 -549 0 -85 24 -217 41 -228
15 -9 172 69 245 121 114 82 192 196 214 314 12 64 14 411 2 411 -4 0 -54 -31
-110 -69z"/>
<path d="M2700 11563 c0 -54 32 -279 49 -345 45 -173 141 -297 292 -373 88
-44 193 -75 207 -61 4 4 9 63 10 130 4 131 -14 230 -57 315 -26 49 -103 135
-156 171 -47 33 -322 180 -336 180 -5 0 -9 -8 -9 -17z"/>
<path d="M8594 11473 c14 -177 47 -326 91 -414 63 -123 186 -224 333 -273 120
-40 119 -41 127 58 20 242 -49 416 -210 531 -57 41 -322 185 -340 185 -4 0 -4
-39 -1 -87z"/>
<path d="M4920 11487 c0 -63 27 -257 46 -330 20 -78 75 -184 126 -241 74 -85
238 -173 333 -179 l39 -2 9 60 c4 33 5 97 2 142 -19 265 -111 375 -456 548
-49 25 -91 45 -94 45 -3 0 -5 -19 -5 -43z"/>
<path d="M8214 11341 c-72 -26 -168 -68 -215 -92 -109 -57 -213 -157 -258
-250 -38 -77 -68 -226 -57 -283 l7 -38 47 7 c155 23 320 90 404 164 53 47 98
113 127 189 35 89 101 352 88 352 -7 -1 -71 -23 -143 -49z"/>
<path d="M10060 11124 c-46 -9 -125 -37 -172 -60 -60 -31 -167 -130 -212 -199
-57 -85 -58 -80 36 -110 233 -74 372 -71 531 12 52 28 105 71 209 172 96 92
135 137 126 142 -48 26 -438 58 -518 43z"/>
<path d="M6365 11089 c-113 -25 -237 -98 -303 -177 -42 -50 -102 -141 -102
-153 0 -15 187 -68 277 -80 225 -29 364 39 627 309 l58 60 -53 11 c-190 38
-409 51 -504 30z"/>
<path d="M10791 10823 c-215 -254 -277 -421 -226 -617 16 -59 91 -216 104
-216 12 0 73 48 129 102 183 176 233 330 177 543 -30 113 -86 285 -93 285 -4
0 -45 -44 -91 -97z"/>
<path d="M5630 10709 c-169 -198 -242 -314 -275 -439 -22 -83 -19 -224 6 -306
22 -72 68 -169 101 -217 l19 -27 46 32 c67 49 192 176 237 241 65 96 89 168
94 281 3 57 -1 123 -7 155 -16 74 -114 391 -121 391 -3 0 -48 -50 -100 -111z"/>
<path d="M2450 10749 c-19 -5 -96 -26 -170 -46 -74 -20 -139 -40 -143 -44 -5
-3 31 -38 80 -76 241 -190 358 -243 534 -243 81 0 113 5 182 28 47 16 105 41
131 56 37 22 44 30 37 44 -17 32 -161 167 -218 204 -98 65 -153 81 -283 84
-63 2 -131 -1 -150 -7z"/>
<path d="M4399 10677 c-269 -182 -375 -300 -424 -471 -32 -110 -4 -386 39
-386 7 0 54 20 105 45 156 76 285 186 338 289 l16 31 23 -88 c63 -234 168
-370 357 -461 97 -47 221 -85 234 -72 4 4 10 73 11 152 5 171 -11 257 -65 365
-64 128 -159 208 -392 329 -107 55 -121 65 -122 89 -1 14 -4 76 -8 138 l-6
111 -106 -71z"/>
<path d="M3200 10619 c0 -69 29 -283 50 -364 62 -242 248 -415 507 -470 29 -6
33 -4 40 22 15 52 7 274 -11 343 -37 138 -118 247 -247 330 -35 22 -125 72
-201 111 l-138 70 0 -42z"/>
<path d="M9794 10584 c26 -305 74 -444 195 -565 47 -46 88 -77 141 -102 80
-38 196 -74 206 -64 4 3 9 57 11 119 8 189 -30 315 -126 420 -63 69 -115 104
-295 198 l-139 73 7 -79z"/>
<path d="M8015 10616 c-76 -18 -153 -48 -206 -81 l-41 -26 45 -52 c65 -77 171
-163 249 -201 143 -72 259 -73 517 -2 90 25 166 47 168 50 7 6 -33 40 -156
133 -104 79 -199 133 -288 164 -76 26 -210 33 -288 15z"/>
<path d="M7079 10513 c-47 -54 -106 -126 -132 -160 -90 -118 -167 -287 -167
-370 0 -40 11 -40 -206 -8 -202 30 -309 31 -426 5 -190 -42 -327 -142 -443
-324 -30 -46 -34 -60 -24 -67 21 -14 197 -67 259 -79 86 -17 251 -14 317 5
132 38 210 92 379 257 72 70 134 125 137 121 4 -3 7 -21 7 -39 0 -65 66 -238
122 -317 l19 -27 61 47 c150 119 262 268 302 402 20 68 20 205 1 285 -21 91
-109 366 -115 366 -4 0 -45 -44 -91 -97z"/>
<path d="M1406 10293 c-3 -10 -14 -69 -26 -132 -23 -133 -26 -311 -6 -386 37
-141 143 -268 286 -344 l59 -32 16 38 c41 96 66 209 67 298 2 176 -43 258
-241 445 -72 69 -136 126 -141 128 -4 2 -11 -5 -14 -15z"/>
<path d="M11295 10220 c-87 -10 -153 -32 -227 -76 -63 -38 -181 -160 -216
-223 l-23 -42 38 -16 c87 -36 225 -63 323 -63 118 0 199 22 286 78 71 46 318
282 307 293 -9 8 -171 36 -255 44 -124 11 -166 12 -233 5z"/>
<path d="M8562 9973 c-135 -283 -150 -430 -62 -608 38 -79 149 -215 173 -215
29 1 138 180 172 282 48 147 29 282 -63 434 -83 136 -147 234 -153 234 -3 0
-33 -57 -67 -127z"/>
<path d="M2550 10083 c-347 -117 -501 -217 -579 -374 -38 -77 -63 -192 -59
-268 l3 -56 40 3 c80 7 226 52 305 92 96 51 175 131 219 223 24 50 111 347
111 380 0 8 -17 8 -40 0z"/>
<path d="M8185 9964 c-11 -1 -69 -8 -130 -14 -146 -15 -289 -52 -383 -98 -117
-56 -225 -168 -285 -293 -42 -88 -74 -186 -63 -196 14 -14 219 -22 306 -12
221 26 361 103 475 264 39 55 205 338 205 350 0 5 -89 5 -125 -1z"/>
<path d="M11794 9801 c-375 -138 -510 -285 -531 -575 l-6 -89 59 8 c81 10 214
49 282 84 122 61 204 150 251 270 33 83 99 351 87 351 -6 -1 -70 -23 -142 -49z"/>
<path d="M9618 9785 c-218 -74 -339 -138 -427 -226 -99 -98 -151 -227 -151
-373 l0 -76 34 0 c47 0 210 43 276 72 120 54 228 165 271 278 20 52 101 352
96 356 -1 1 -46 -13 -99 -31z"/>
<path d="M3020 9764 c-68 -7 -355 -78 -439 -109 -15 -6 162 -151 272 -223 190
-123 367 -159 551 -112 82 21 227 89 234 109 6 19 -195 211 -261 250 -110 65
-242 96 -357 85z"/>
<path d="M10713 9700 c-240 -84 -337 -135 -427 -225 -104 -102 -156 -230 -156
-384 l0 -74 49 7 c275 36 464 165 538 366 17 46 93 319 93 335 0 8 -12 5 -97
-25z"/>
<path d="M3996 9593 c-3 -10 -17 -88 -31 -173 -62 -378 -10 -578 196 -756 55
-46 177 -124 196 -124 13 0 57 113 83 215 24 92 29 254 10 325 -29 110 -77
179 -226 326 -79 78 -161 156 -183 173 -35 28 -40 29 -45 14z"/>
<path d="M5300 9582 c-321 -206 -468 -352 -532 -528 -33 -89 -37 -255 -9 -364
11 -46 23 -85 26 -88 9 -9 135 47 220 96 47 28 112 79 161 127 137 135 175
248 173 508 -1 78 -4 170 -8 203 l-6 62 -25 -16z"/>
<path d="M610 9558 c0 -18 146 -207 219 -282 70 -72 167 -137 252 -167 84 -30
272 -33 362 -6 31 10 57 21 57 25 -1 20 -97 183 -140 236 -73 90 -142 140
-246 178 -52 18 -87 22 -281 26 -185 3 -223 2 -223 -10z"/>
<path d="M5777 9352 c-3 -4 -17 -75 -31 -158 -34 -196 -36 -365 -6 -473 12
-40 19 -76 16 -78 -2 -3 -43 5 -90 16 -101 25 -273 28 -354 7 -113 -30 -267
-122 -347 -206 l-30 -32 29 -23 c91 -73 285 -166 388 -186 77 -14 204 -12 271
6 69 18 185 70 266 120 68 40 85 42 126 14 17 -11 51 -31 78 -45 l47 -25 20
45 c54 128 80 245 80 366 0 142 -49 264 -152 379 -42 46 -295 281 -303 281 -2
0 -6 -3 -8 -8z"/>
<path d="M6968 9262 c-306 -210 -417 -352 -449 -570 -10 -72 2 -208 26 -290
18 -61 15 -61 130 -6 159 75 283 174 354 283 77 120 95 223 86 484 -4 103 -10
187 -14 187 -3 -1 -63 -40 -133 -88z"/>
<path d="M1660 9188 c-211 -243 -277 -406 -237 -593 15 -72 62 -180 96 -224
l19 -25 71 57 c151 123 239 265 248 404 3 44 0 103 -6 133 -19 90 -95 340
-103 340 -4 0 -44 -42 -88 -92z"/>
<path d="M3170 9145 c-231 -161 -328 -266 -381 -415 -31 -86 -33 -261 -5 -358
18 -60 20 -63 45 -57 42 10 181 83 246 130 125 89 202 201 231 334 14 68 18
394 6 438 -7 20 -16 15 -142 -72z"/>
<path d="M7510 9184 c-14 -3 -53 -12 -88 -21 -72 -19 -72 -15 -13 -128 81
-157 206 -292 323 -349 107 -52 192 -66 405 -66 106 0 193 -4 193 -9 0 -5 -11
-33 -25 -62 -71 -156 -74 -313 -9 -477 30 -75 84 -171 98 -172 17 0 138 103
207 178 51 55 83 102 114 167 83 171 80 279 -17 588 l-53 169 -43 -47 c-55
-62 -183 -214 -204 -244 -9 -13 -21 -20 -27 -16 -6 3 -46 52 -88 108 -143 190
-284 306 -435 358 -49 17 -90 23 -188 25 -69 1 -136 0 -150 -2z"/>
<path d="M2000 9131 c0 -44 32 -291 46 -356 9 -38 36 -112 60 -163 62 -128
137 -204 266 -266 91 -44 214 -83 225 -72 4 3 8 63 11 133 8 263 -66 430 -248
552 -49 34 -342 191 -355 191 -3 0 -5 -9 -5 -19z"/>
<path d="M11832 9075 c-93 -20 -202 -78 -277 -147 l-66 -61 48 -34 c68 -49
217 -120 288 -138 157 -40 283 -10 510 120 83 48 154 90 158 94 8 8 -208 103
-320 140 -120 40 -235 49 -341 26z"/>
<path d="M9340 9035 c-30 -8 -92 -33 -138 -56 l-82 -40 19 -27 c35 -49 156
-159 221 -201 131 -85 279 -106 450 -63 161 41 275 73 284 82 21 21 -286 237
-402 283 -66 26 -93 31 -187 34 -76 2 -127 -2 -165 -12z"/>
<path d="M10740 8964 c-132 -23 -243 -80 -347 -178 -18 -16 -33 -34 -33 -38 0
-13 115 -85 197 -124 177 -84 342 -85 507 -2 52 26 282 154 296 165 8 7 -20
21 -145 74 -66 28 -156 61 -201 74 -79 23 -223 38 -274 29z"/>
<path d="M624 8873 c82 -228 143 -341 235 -434 104 -105 192 -147 349 -169 45
-6 97 -8 115 -5 l34 7 -9 56 c-34 228 -149 399 -320 477 -56 26 -354 105 -395
105 -21 0 -22 -1 -9 -37z"/>
<path d="M11414 8623 c-9 -92 2 -227 26 -304 25 -81 66 -144 136 -208 52 -48
80 -65 298 -181 l99 -53 -7 79 c-31 368 -108 533 -301 649 -55 32 -196 85
-230 85 -9 0 -16 -20 -21 -67z"/>
<path d="M10286 8548 c-11 -43 -6 -262 8 -313 37 -139 97 -219 236 -310 l100
-66 -70 -90 c-139 -180 -183 -326 -149 -491 13 -60 66 -181 96 -217 l20 -24
60 46 c107 82 193 191 235 296 28 72 31 228 5 310 -20 64 -22 85 -5 75 8 -5 9
19 4 98 -15 243 -59 384 -156 507 -67 84 -223 174 -341 195 -32 6 -37 4 -43
-16z"/>
<path d="M4448 8482 c-328 -222 -449 -376 -472 -602 -11 -110 27 -320 59 -320
7 0 62 24 122 54 254 127 373 269 410 484 12 75 14 126 7 277 l-9 186 -117
-79z"/>
<path d="M3155 8443 c2 -16 9 -82 16 -148 37 -398 146 -586 412 -710 80 -38
202 -73 214 -62 15 16 15 290 -1 365 -33 158 -120 283 -259 376 -46 30 -374
206 -384 206 -1 0 -1 -12 2 -27z"/>
<path d="M7110 8425 c-99 -21 -238 -96 -320 -172 -39 -36 -70 -69 -70 -73 0
-14 131 -97 221 -140 120 -57 230 -83 339 -78 l88 3 -20 -50 c-11 -27 -28 -71
-39 -97 -48 -121 -64 -307 -35 -413 29 -108 117 -249 207 -329 40 -37 41 -37
61 -19 33 30 123 173 156 249 93 211 78 371 -51 584 -22 36 -50 83 -63 105
l-23 40 147 87 c81 48 155 90 165 94 10 3 16 11 14 17 -4 13 -224 109 -340
148 -171 58 -305 72 -437 44z"/>
<path d="M9630 8345 c-349 -31 -499 -84 -646 -230 -65 -64 -89 -97 -122 -165
-44 -92 -78 -197 -67 -208 4 -4 91 -7 193 -6 175 0 192 2 267 27 196 66 291
158 440 427 32 58 66 117 77 132 19 28 22 39 11 37 -5 -1 -73 -7 -153 -14z"/>
<path d="M6158 8180 c-278 -192 -388 -324 -428 -518 -22 -105 3 -337 40 -376
11 -12 208 84 284 138 78 56 163 146 199 213 53 99 67 184 66 407 0 111 -4
209 -8 219 -6 16 -27 4 -153 -83z"/>
<path d="M1755 8245 c-38 -7 -124 -29 -190 -48 -66 -19 -135 -38 -152 -41 -18
-4 -33 -11 -33 -15 0 -8 162 -138 255 -204 77 -55 211 -115 295 -133 100 -21
220 -14 325 21 78 26 195 83 195 96 0 19 -186 194 -251 236 -136 88 -291 119
-444 88z"/>
<path d="M4900 8172 c0 -35 29 -285 40 -342 48 -257 168 -420 382 -520 95 -44
206 -76 220 -62 5 5 11 60 14 123 16 302 -85 506 -321 645 -54 32 -275 148
-327 172 -5 2 -8 -5 -8 -16z"/>
<path d="M723 8095 c-29 -8 -76 -26 -105 -41 -90 -44 -307 -169 -308 -176 0
-11 286 -128 365 -148 167 -43 288 -35 415 26 71 34 166 101 205 144 l20 22
-29 23 c-52 41 -173 106 -248 132 -91 32 -236 41 -315 18z"/>
<path d="M8985 7566 c-38 -7 -89 -18 -112 -25 l-43 -12 16 -37 c50 -120 132
-239 228 -331 l67 -63 -45 -92 c-25 -50 -50 -111 -57 -136 -18 -67 -16 -214 5
-289 18 -67 74 -189 106 -231 l18 -24 43 29 c66 46 190 172 238 244 69 102 92
169 98 294 l6 107 136 1 c75 1 149 4 165 8 l29 6 -105 140 c-141 187 -250 290
-371 350 -139 69 -268 88 -422 61z"/>
<path d="M8550 7559 c-317 -30 -484 -92 -621 -231 -73 -74 -146 -204 -172
-310 l-15 -56 52 -8 c105 -14 277 -8 368 14 209 51 321 148 466 404 38 68 80
140 92 161 l22 37 -54 -1 c-29 -1 -91 -5 -138 -10z"/>
<path d="M6350 7441 c107 -275 154 -357 264 -466 60 -60 101 -90 158 -118 92
-46 230 -77 342 -77 l78 0 -6 48 c-14 94 -49 209 -93 300 -85 178 -224 282
-455 341 -167 43 -291 71 -310 71 -14 0 -11 -15 22 -99z"/>
<path d="M1894 7458 c3 -24 10 -92 16 -153 14 -147 28 -235 51 -325 64 -259
201 -433 425 -544 73 -36 209 -82 259 -88 29 -3 30 -2 37 52 10 85 9 278 -2
352 -19 129 -82 269 -164 365 -64 73 -183 153 -404 269 -119 63 -218 114 -220
114 -2 0 -1 -19 2 -42z"/>
<path d="M2825 7475 c-137 -33 -330 -89 -336 -97 -6 -9 196 -169 298 -235 200
-131 384 -169 582 -123 86 21 251 95 258 117 6 17 -106 143 -179 201 -83 66
-197 126 -274 146 -90 23 -228 20 -349 -9z"/>
<path d="M11625 7423 c-332 -28 -479 -77 -601 -199 -66 -65 -124 -167 -148
-262 l-14 -52 26 -7 c51 -15 273 -7 342 11 134 36 247 119 321 236 43 67 159
268 159 275 0 5 -8 5 -85 -2z"/>
<path d="M1104 7214 c-30 -65 -66 -144 -79 -176 -108 -265 -71 -485 114 -680
l78 -82 53 75 c188 265 206 478 61 716 -85 140 -153 248 -162 257 -5 6 -32
-41 -65 -110z"/>
<path d="M5670 7235 c0 -9 529 -2110 536 -2131 14 -40 -16 6 -126 191 -195
326 -308 487 -468 663 -362 398 -878 630 -1597 717 -194 23 -315 29 -315 16 0
-6 4 -11 9 -11 29 0 417 -70 551 -100 535 -118 880 -284 1140 -549 231 -235
387 -537 500 -966 28 -106 90 -402 90 -430 0 -27 -166 22 -294 86 -220 112
-396 278 -765 724 -253 305 -485 544 -626 643 -98 69 -253 149 -352 181 -284
91 -611 59 -985 -97 -49 -20 -88 -40 -88 -44 0 -12 6 -11 122 26 169 54 284
70 467 63 354 -13 619 -143 923 -453 296 -302 566 -790 774 -1399 385 -1124
529 -2666 336 -3585 -65 -307 -180 -530 -312 -604 -46 -26 -66 -31 -122 -31
-85 0 -84 -16 3 -32 450 -85 637 -106 939 -107 219 0 265 3 430 28 102 15 230
34 285 42 138 20 591 29 790 15 190 -13 359 -29 398 -37 38 -8 33 5 -21 50
-131 107 -127 102 -141 222 -6 60 -16 145 -21 189 -32 268 -67 692 -92 1095
-17 279 -17 1378 0 1600 43 550 87 754 233 1075 197 434 540 842 1009 1202
161 123 391 273 520 338 28 14 50 30 50 35 0 15 -6 13 -98 -36 -763 -410
-1290 -794 -1579 -1154 -190 -236 -295 -320 -402 -320 -58 0 -100 29 -131 89
-10 21 -36 49 -57 64 -85 59 -160 194 -189 337 -24 119 -15 322 20 485 34 153
70 260 199 585 224 566 326 938 292 1066 -6 25 -14 9 -55 -116 -58 -177 -77
-223 -195 -470 -114 -238 -171 -390 -320 -855 -22 -71 -93 -313 -174 -595 -77
-269 -79 -274 -85 -225 -27 193 -95 474 -165 685 -99 296 -200 530 -476 1095
-128 264 -246 515 -305 648 -23 53 -46 97 -51 97 -5 0 -9 -2 -9 -5z"/>
<path d="M4685 7218 c-38 -4 -101 -16 -140 -26 -38 -11 -125 -34 -192 -52 -68
-19 -123 -37 -123 -41 0 -12 268 -214 338 -256 259 -151 466 -160 730 -30 45
22 82 44 82 48 0 14 -90 111 -164 177 -163 145 -332 203 -531 180z"/>
<path d="M10510 6783 c-124 -7 -343 -37 -426 -58 -107 -27 -227 -86 -297 -146
-93 -80 -189 -249 -212 -371 l-7 -36 56 -7 c87 -11 313 0 381 19 141 39 248
112 334 226 51 69 228 368 220 373 -2 1 -24 1 -49 0z"/>
<path d="M10963 6743 c-35 -8 -63 -19 -63 -24 0 -6 13 -37 30 -70 95 -192 221
-309 380 -352 74 -21 198 -27 354 -19 l129 7 -90 120 c-202 269 -344 356 -574
354 -57 0 -132 -7 -166 -16z"/>
<path d="M98 6633 c-10 -2 -18 -7 -18 -10 0 -16 181 -245 244 -308 157 -159
320 -222 531 -203 82 7 195 32 195 44 0 2 -16 37 -36 77 -114 225 -261 353
-452 392 -70 14 -418 20 -464 8z"/>
<path d="M1773 6344 c-96 -21 -209 -68 -333 -140 -63 -36 -153 -88 -199 -115
-46 -26 -89 -50 -95 -52 -6 -2 -8 -7 -5 -11 14 -15 342 -151 449 -186 364
-119 661 -58 923 189 31 30 57 58 57 63 0 4 -41 36 -92 69 -256 168 -494 230
-705 183z"/>
<path d="M11088 6095 c-89 -22 -176 -72 -246 -138 -57 -55 -142 -167 -142
-187 0 -13 190 -69 278 -81 140 -19 272 12 389 93 76 52 296 271 281 279 -33
17 -226 41 -358 45 -105 3 -161 0 -202 -11z"/>
<path d="M9810 6000 c-47 -4 -111 -15 -143 -24 -68 -20 -68 -17 -4 -138 108
-206 254 -335 436 -384 69 -19 306 -28 453 -17 l107 8 -87 116 c-119 158 -182
230 -255 287 -158 125 -303 168 -507 152z"/>
<path d="M624 5861 c-148 -24 -225 -71 -413 -256 l-154 -151 139 -23 c392 -65
584 -28 768 149 96 93 84 96 135 -33 147 -370 322 -516 644 -534 l109 -6 -7
49 c-9 56 -48 198 -70 251 -28 66 -106 172 -158 214 -92 74 -185 110 -419 164
-65 14 -118 29 -118 31 0 3 7 18 15 33 l14 29 -57 21 c-144 53 -320 78 -428
62z"/>
<path d="M2745 5680 c-202 -42 -368 -113 -479 -206 -82 -68 -169 -198 -213
-318 -21 -59 -123 -460 -117 -465 6 -7 371 128 461 171 195 92 348 230 421
380 55 113 73 191 79 336 l5 122 -33 -1 c-19 0 -74 -9 -124 -19z"/>
<path d="M10930 5459 c-70 -5 -162 -23 -179 -35 -7 -6 88 -174 130 -229 77
-102 186 -176 303 -204 44 -11 452 -18 462 -8 6 5 -151 211 -209 274 -106 113
-240 187 -367 202 -30 3 -93 3 -140 0z"/>
<path d="M10553 5242 c-65 -88 -122 -208 -139 -294 -29 -143 3 -243 151 -477
42 -66 80 -121 84 -121 10 0 105 200 144 303 28 74 31 93 31 202 1 139 -12
187 -75 285 -39 60 -130 160 -146 160 -4 0 -27 -26 -50 -58z"/>
<path d="M1290 4884 c-127 -34 -227 -104 -409 -287 l-104 -105 54 -11 c240
-48 462 -58 579 -27 90 24 187 78 259 142 62 56 165 199 156 215 -7 11 -151
56 -238 75 -86 18 -226 17 -297 -2z"/>
<path d="M2053 4546 c-173 -82 -299 -190 -358 -308 -49 -99 -56 -147 -53 -381
l3 -208 125 85 c252 170 363 296 411 466 29 103 0 371 -41 377 -8 1 -47 -13
-87 -31z"/>
</g>
</svg>
